<svg width="141" height="35" viewBox="0 0 141 35" fill="none" xmlns="http://www.w3.org/2000/svg">
<g clip-path="url(#clip0_27_4092)">
<path d="M46.5761 11.3816H54.4V34.947H59.1244V11.3816H70.1688L66.9483 6.72803H46.5761V11.3816Z" fill="#1C4986"/>
<path d="M90.4442 26.49C95.6086 26.49 97.5525 24.3193 97.5525 20.4966C97.5525 16.4722 95.449 14.1094 90.4829 14.1094H83.6938C78.4521 14.1094 76.3873 17.0292 76.3873 20.972V28.07C76.3873 32.0128 78.4521 34.9326 83.6938 34.9326H96.5225V30.8698H83.6938C81.3921 30.8698 80.4781 29.6452 80.4781 27.9884V26.49H90.4442ZM80.4733 21.0056C80.4733 19.3872 81.3872 18.129 83.689 18.129H90.4394C92.5042 18.129 93.4181 19.1519 93.4181 20.7319C93.4181 22.3119 92.5864 23.2148 90.3233 23.2148H80.4733V21.0056Z" fill="#1C4986"/>
<path d="M112.91 14.1045H104.255C102.151 14.1045 101.315 14.8921 101.315 17.3413V34.9326H105.522V18.7244C105.522 18.3306 105.681 18.1337 106.039 18.1337H112.91C117.32 18.1337 119.225 19.949 119.225 23.2195V34.9326H123.476V23.2195C123.476 17.4614 120.023 14.1093 112.91 14.1093" fill="#1C4986"/>
<path d="M141 18.1962L137.78 14.1718H131.982V9.23975H127.731V14.1718H124.873V18.1962H127.731V27.8203C127.731 33.2614 129.598 34.9999 133.926 34.9999H137.697V31.1724H134.801C132.813 31.1724 131.982 30.3848 131.982 28.0556V18.1962H141Z" fill="#1C4986"/>
<path d="M109.941 26.7397H107.272V27.8155H109.941V26.7397Z" fill="#1C4986"/>
<path d="M72.7993 14.1045H69.4966C65.367 14.1045 63.8148 15.9966 63.8148 20.1795V34.9278H68.0266V20.8087C68.0266 18.9934 68.8583 18.1289 70.7248 18.1289H72.7993V14.1045Z" fill="#1C4986"/>
<path d="M36.8131 7.12176V5.84912H37.3788C37.4949 5.84912 37.5819 5.85873 37.6399 5.88274C37.698 5.90675 37.7463 5.94517 37.7802 6.0028C37.814 6.06043 37.8334 6.12286 37.8334 6.19489C37.8334 6.28614 37.8043 6.36298 37.7463 6.42541C37.6883 6.48784 37.5964 6.52626 37.4755 6.54547C37.5191 6.56468 37.5529 6.58869 37.5771 6.6079C37.6254 6.65112 37.6738 6.70875 37.7173 6.77599L37.9397 7.12176H37.727L37.5577 6.85763C37.5094 6.78079 37.4659 6.72316 37.4368 6.68474C37.4078 6.64632 37.374 6.61751 37.3498 6.5983C37.3256 6.58389 37.2966 6.56948 37.2724 6.56468C37.2531 6.56468 37.2241 6.55988 37.1757 6.55988H36.9775V7.12656H36.8082L36.8131 7.12176ZM36.9823 6.411H37.345C37.4223 6.411 37.4852 6.4014 37.5287 6.38699C37.5722 6.37258 37.6061 6.34377 37.6303 6.31015C37.6544 6.27654 37.6641 6.23812 37.6641 6.19489C37.6641 6.13727 37.6399 6.08444 37.5964 6.04602C37.5529 6.0076 37.4852 5.98839 37.3885 5.98839H36.9823V6.411Z" fill="#1C4986"/>
<path d="M37.287 5.23486C36.6052 5.23486 36.0443 5.78714 36.0443 6.46908C36.0443 7.15103 36.6003 7.6985 37.287 7.6985C37.9736 7.6985 38.5249 7.14622 38.5249 6.46908C38.5249 5.79194 37.9688 5.23486 37.287 5.23486ZM37.287 7.61206C36.6535 7.61206 36.1361 7.0982 36.1361 6.46908C36.1361 5.83997 36.6535 5.32611 37.287 5.32611C37.9204 5.32611 38.4378 5.83997 38.4378 6.46908C38.4378 7.0982 37.9204 7.61206 37.287 7.61206Z" fill="#1C4986"/>
<path d="M32.2725 35H38.9407L35.5703 29.1987H38.1961V23.4598H38.1767V9.58082H38.1719V9.57602L21.4747 0L21.4505 0.0384193V6.61293L32.3982 12.8897V23.4598H22.0695V17.6921L16.291 20.9289V34.9616H22.0695V29.1987H28.8973L32.2725 35Z" fill="#1C4986"/>
<path d="M19.9273 0.27832L10.5463 5.65703V1.8199L4.76786 5.26323V8.97069L0 11.7081V18.3306L4.76786 15.5932V34.9998H10.5463V12.2844L19.9273 6.90565V0.27832Z" fill="#1C4986"/>
</g>
<defs>
<clipPath id="clip0_27_4092">
<rect width="141" height="35" fill="white"/>
</clipPath>
</defs>
</svg>
