<svg width="82" height="82" viewBox="0 0 82 82" fill="none" xmlns="http://www.w3.org/2000/svg">
<path d="M41.372 77.1466C39.2452 77.1466 37.2533 76.3366 35.7679 74.8174L30.6365 69.6859C30.2313 69.2807 29.151 68.8419 28.6109 68.8419H21.3187C16.93 68.8419 13.3852 65.2968 13.3852 60.908V53.6162C13.3852 53.076 12.9463 51.9958 12.5412 51.5907L7.40975 46.4592C5.92432 44.9737 5.08032 42.9818 5.08032 40.8549C5.08032 38.7281 5.89056 36.7361 7.40975 35.2507L12.5412 30.1192C12.9463 29.714 13.3852 28.6338 13.3852 28.0937V20.8018C13.3852 16.4131 16.93 12.868 21.3187 12.868H28.6109C29.151 12.868 30.2313 12.4291 30.6365 12.024L35.7679 6.89245C38.7388 3.92159 44.0053 3.92159 46.9761 6.89245L52.1076 12.024C52.5127 12.4291 53.593 12.868 54.1332 12.868H61.4253C65.8141 12.868 69.3589 16.4131 69.3589 20.8018V28.0937C69.3589 28.6338 69.7977 29.714 70.2029 30.1192L75.3343 35.2507C76.8197 36.7361 77.6637 38.7281 77.6637 40.8549C77.6637 42.9818 76.8535 44.9737 75.3343 46.4592L70.2029 51.5907C69.7977 51.9958 69.3589 53.076 69.3589 53.6162V60.908C69.3589 65.2968 65.8141 68.8419 61.4253 68.8419H54.1332C53.593 68.8419 52.5127 69.2807 52.1076 69.6859L46.9761 74.8174C45.4907 76.3366 43.4989 77.1466 41.372 77.1466ZM16.1197 48.012C17.4701 49.3624 18.4491 51.7257 18.4491 53.6162V60.908C18.4491 62.4947 19.732 63.7779 21.3187 63.7779H28.6109C30.5014 63.7779 32.8646 64.7567 34.215 66.1071L39.3464 71.2387C40.4267 72.319 42.3173 72.319 43.3976 71.2387L48.5291 66.1071C49.8795 64.7567 52.2426 63.7779 54.1332 63.7779H61.4253C63.012 63.7779 64.2949 62.4947 64.2949 60.908V53.6162C64.2949 51.7257 65.2739 49.3624 66.6243 48.012L71.7558 42.8804C72.2959 42.3403 72.5998 41.6314 72.5998 40.8549C72.5998 40.0785 72.2959 39.3696 71.7558 38.8294L66.6243 33.6979C65.2739 32.3475 64.2949 29.9842 64.2949 28.0937V20.8018C64.2949 19.2151 63.012 17.9319 61.4253 17.9319H54.1332C52.2426 17.9319 49.8795 16.9531 48.5291 15.6027L43.3976 10.4712C42.3173 9.39087 40.4267 9.39087 39.3464 10.4712L34.215 15.6027C32.8646 16.9531 30.5014 17.9319 28.6109 17.9319H21.3187C19.732 17.9319 18.4491 19.2151 18.4491 20.8018V28.0937C18.4491 29.9842 17.4701 32.3475 16.1197 33.6979L10.9883 38.8294C10.4481 39.3696 10.1443 40.0785 10.1443 40.8549C10.1443 41.6314 10.4481 42.3403 10.9883 42.8804L16.1197 48.012Z" fill="white"/>
<path d="M51.5007 54.3589C49.6102 54.3589 48.0909 52.8397 48.0909 50.9829C48.0909 49.1261 49.6101 47.6069 51.4669 47.6069C53.3237 47.6069 54.8429 49.1261 54.8429 50.9829C54.8429 52.8397 53.3575 54.3589 51.5007 54.3589Z" fill="white"/>
<path d="M31.2779 34.103C29.3874 34.103 27.8682 32.5838 27.8682 30.727C27.8682 28.8703 29.3874 27.3511 31.2441 27.3511C33.1009 27.3511 34.6201 28.8703 34.6201 30.727C34.6201 32.5838 33.1347 34.103 31.2779 34.103Z" fill="white"/>
<path d="M31.2439 53.5146C30.6024 53.5146 29.961 53.2784 29.4546 52.772C28.4756 51.7929 28.4756 50.1723 29.4546 49.1932L49.7104 28.9374C50.6895 27.9584 52.3099 27.9584 53.289 28.9374C54.268 29.9164 54.268 31.5371 53.289 32.5161L33.0331 52.772C32.5267 53.2784 31.8853 53.5146 31.2439 53.5146Z" fill="white"/>
</svg>
