<svg width="90" height="82" viewBox="0 0 90 82" fill="none" xmlns="http://www.w3.org/2000/svg">
<path d="M77.4013 24.548C83.7966 24.548 88.9996 19.3448 88.9996 12.9495C88.9996 6.55665 83.7966 1.35571 77.4013 1.35571C71.0088 1.35571 65.8079 6.55665 65.8079 12.9495C65.808 19.345 71.0088 24.548 77.4013 24.548ZM77.4013 3.93401C82.3751 3.93401 86.4215 7.9784 86.4215 12.9495C86.4215 17.9234 82.3751 21.9699 77.4013 21.9699C72.4304 21.9699 68.3862 17.9234 68.3862 12.9495C68.3862 7.97823 72.4304 3.93401 77.4013 3.93401Z" fill="white" stroke="white"/>
<path d="M62.7552 68.8925C69.7112 69.2708 77.5956 69.6998 88.0425 66.9168C88.7305 66.7336 89.1396 66.0274 88.9563 65.3393C88.7733 64.6513 88.0671 64.2424 87.3789 64.4257C85.5759 64.9061 83.8508 65.2852 82.1927 65.5846L69.7409 48.7723C69.3169 48.2003 68.5096 48.0797 67.9377 48.5037C67.3657 48.9273 67.2454 49.7346 67.6689 50.3068L79.3178 66.0349C73.0228 66.8685 67.7284 66.5813 62.8953 66.3184C62.573 66.3008 62.2532 66.2836 61.9343 66.2666L48.5973 24.5512L64.1611 45.566C64.5848 46.138 65.3916 46.2583 65.9643 45.8346C66.5363 45.411 66.6566 44.6037 66.2331 44.0315L46.0333 16.7572C45.7901 16.4289 45.406 16.2354 44.9974 16.2354C44.5889 16.2354 44.2046 16.4289 43.9615 16.7573L5.4758 68.7284C4.35809 68.8752 3.23042 69.0369 2.08917 69.2162C1.38586 69.3267 0.905297 69.9863 1.01581 70.6896C1.11567 71.3252 1.66395 71.7788 2.28786 71.7788C2.35437 71.7788 2.42158 71.7737 2.48947 71.763C8.9408 70.7496 14.9772 70.2663 20.9351 70.2878H20.9397C21.6494 70.2878 22.2262 69.7136 22.2286 69.0032C22.2312 68.2913 21.6559 67.7123 20.944 67.7097C17.0189 67.698 13.0646 67.8981 8.98858 68.3169L18.9951 54.8041H25.7141C26.4262 54.8041 27.0031 54.2269 27.0031 53.515C27.0031 52.8031 26.4262 52.226 25.7141 52.226H20.9043L31.5687 37.8247H40.6516C41.3636 37.8247 41.9406 37.2476 41.9406 36.5357C41.9406 35.8238 41.3636 35.2466 40.6516 35.2466H33.4778L44.5359 20.3138L52.8165 46.2138H39.5165C38.8044 46.2138 38.2274 46.7909 38.2274 47.5028C38.2274 48.2148 38.8044 48.7919 39.5165 48.7919H53.6408L56.407 57.4441H48.0913C47.3793 57.4441 46.8023 58.0213 46.8023 58.7332C46.8023 59.4451 47.3793 60.0222 48.0913 60.0222H57.2313L59.1869 66.1387C53.1421 65.9189 47.6245 66.2738 41.7828 69.8591C37.1678 68.9461 32.2654 68.2284 26.8737 67.902C26.1608 67.8602 25.5522 68.4003 25.509 69.1108C25.4661 69.8215 26.0071 70.4325 26.7178 70.4755C37.7551 71.1434 46.778 73.5084 55.504 75.7957C64.9937 78.2831 74.0017 80.6443 84.7332 80.6443C85.728 80.6443 86.7376 80.624 87.7639 80.5817C88.4753 80.5524 89.028 79.9518 88.9986 79.2406C88.9692 78.5292 88.3665 77.9756 87.6575 78.0057C75.9483 78.4895 66.3348 75.9695 56.1578 73.3018C52.7512 72.4089 49.2994 71.5047 45.6985 70.6909C51.0918 68.2593 56.3549 68.5445 62.7552 68.8925Z" fill="white" stroke="white"/>
</svg>
