<svg width="71" height="66" viewBox="0 0 71 66" fill="none" xmlns="http://www.w3.org/2000/svg">
<g clip-path="url(#clip0_27_4194)">
<path d="M53.7276 64.271L64.7522 65.4251L60.1831 55.2803L64.5265 55.735L65.5171 46.2728L65.4786 46.2687L67.875 23.3773L67.8758 23.3697L41.9173 4.68824L41.8715 4.75299L40.7377 15.5834L57.7604 27.8355L55.9352 45.2696L38.8545 43.4815L39.8498 33.9734L29.7403 38.3084L27.3182 61.4444L36.8693 62.4443L37.8639 52.9438L49.1585 54.1262L53.7276 64.271Z" fill="#1C4986"/>
<path d="M39.3148 4.88716L22.8797 12.1299L23.5422 5.80132L13.3975 10.4727L12.7565 16.5949L4.39983 20.279L3.25642 31.2011L11.6131 27.517L8.26371 59.5115L17.8147 60.5113L21.7363 23.052L38.1714 15.8093L39.3148 4.88716Z" fill="#1C4986"/>
</g>
<defs>
<clipPath id="clip0_27_4194">
<rect width="64.7249" height="58.0292" fill="white" transform="translate(6.42102 0.972168) rotate(5.97639)"/>
</clipPath>
</defs>
</svg>
