<svg width="141" height="35" viewBox="0 0 141 35" fill="none" xmlns="http://www.w3.org/2000/svg">
<g clip-path="url(#clip0_27_3896)">
<path d="M46.5761 11.3817H54.4V34.9472H59.1244V11.3817H70.1688L66.9483 6.72818H46.5761V11.3817Z" fill="white"/>
<path d="M90.4442 26.4901C95.6086 26.4901 97.5525 24.3194 97.5525 20.4967C97.5525 16.4723 95.449 14.1095 90.4829 14.1095H83.6938C78.4521 14.1095 76.3873 17.0294 76.3873 20.9721V28.0701C76.3873 32.0129 78.4521 34.9328 83.6938 34.9328H96.5225V30.8699H83.6938C81.3921 30.8699 80.4781 29.6453 80.4781 27.9885V26.4901H90.4442ZM80.4733 21.0058C80.4733 19.3874 81.3872 18.1291 83.689 18.1291H90.4394C92.5042 18.1291 93.4181 19.152 93.4181 20.732C93.4181 22.312 92.5864 23.2149 90.3233 23.2149H80.4733V21.0058Z" fill="white"/>
<path d="M112.91 14.1047H104.255C102.151 14.1047 101.315 14.8923 101.315 17.3415V34.9328H105.522V18.7246C105.522 18.3308 105.681 18.1339 106.039 18.1339H112.91C117.32 18.1339 119.225 19.9492 119.225 23.2197V34.9328H123.476V23.2197C123.476 17.4616 120.023 14.1095 112.91 14.1095" fill="white"/>
<path d="M141 18.1963L137.78 14.1719H131.982V9.23985H127.731V14.1719H124.873V18.1963H127.731V27.8204C127.731 33.2615 129.598 35 133.926 35H137.697V31.1725H134.801C132.813 31.1725 131.982 30.3849 131.982 28.0557V18.1963H141Z" fill="white"/>
<path d="M109.941 26.7398H107.272V27.8156H109.941V26.7398Z" fill="white"/>
<path d="M72.7993 14.1047H69.4966C65.367 14.1047 63.8148 15.9968 63.8148 20.1797V34.928H68.0266V20.8089C68.0266 18.9935 68.8583 18.1291 70.7248 18.1291H72.7993V14.1047Z" fill="white"/>
<path d="M36.8131 7.12198V5.84934H37.3788C37.4949 5.84934 37.5819 5.85895 37.6399 5.88296C37.698 5.90697 37.7463 5.94539 37.7802 6.00302C37.814 6.06065 37.8334 6.12308 37.8334 6.19512C37.8334 6.28636 37.8043 6.3632 37.7463 6.42563C37.6883 6.48806 37.5964 6.52648 37.4755 6.54569C37.5191 6.5649 37.5529 6.58891 37.5771 6.60812C37.6254 6.65135 37.6738 6.70897 37.7173 6.77621L37.9397 7.12198H37.727L37.5577 6.85785C37.5094 6.78101 37.4659 6.72338 37.4368 6.68496C37.4078 6.64654 37.374 6.61773 37.3498 6.59852C37.3256 6.58411 37.2966 6.5697 37.2724 6.5649C37.2531 6.5649 37.2241 6.5601 37.1757 6.5601H36.9775V7.12678H36.8082L36.8131 7.12198ZM36.9823 6.41122H37.345C37.4223 6.41122 37.4852 6.40162 37.5287 6.38721C37.5722 6.37281 37.6061 6.34399 37.6303 6.31037C37.6544 6.27676 37.6641 6.23834 37.6641 6.19512C37.6641 6.13749 37.6399 6.08466 37.5964 6.04624C37.5529 6.00782 37.4852 5.98861 37.3885 5.98861H36.9823V6.41122Z" fill="white"/>
<path d="M37.287 5.23463C36.6052 5.23463 36.0443 5.78691 36.0443 6.46886C36.0443 7.1508 36.6003 7.69827 37.287 7.69827C37.9736 7.69827 38.5249 7.146 38.5249 6.46886C38.5249 5.79171 37.9688 5.23463 37.287 5.23463ZM37.287 7.61183C36.6535 7.61183 36.1361 7.09797 36.1361 6.46886C36.1361 5.83974 36.6535 5.32588 37.287 5.32588C37.9204 5.32588 38.4378 5.83974 38.4378 6.46886C38.4378 7.09797 37.9204 7.61183 37.287 7.61183Z" fill="white"/>
<path d="M32.2725 35H38.9407L35.5703 29.1987H38.1961V23.4598H38.1767V9.58082H38.1719V9.57602L21.4747 0L21.4505 0.0384193V6.61293L32.3982 12.8897V23.4598H22.0695V17.6921L16.291 20.9289V34.9616H22.0695V29.1987H28.8973L32.2725 35Z" fill="white"/>
<path d="M19.9273 0.278542L10.5463 5.65725V1.82012L4.76786 5.26345V8.97091L0 11.7083V18.3308L4.76786 15.5934V35H10.5463V12.2846L19.9273 6.90587V0.278542Z" fill="white"/>
</g>
<defs>
<clipPath id="clip0_27_3896">
<rect width="141" height="35" fill="white"/>
</clipPath>
</defs>
</svg>
