<svg width="82" height="82" viewBox="0 0 82 82" fill="none" xmlns="http://www.w3.org/2000/svg">
<path d="M24.565 77.1466C16.5302 77.1466 9.9472 71.3062 9.9472 64.1154V57.2283C9.9472 55.8441 11.095 54.6963 12.4792 54.6963C13.8633 54.6963 15.0112 55.8441 15.0112 57.2283C15.0112 61.4482 19.0959 64.6217 24.565 64.6217C30.0341 64.6217 34.1191 61.4482 34.1191 57.2283C34.1191 55.8441 35.2669 54.6963 36.6511 54.6963C38.0352 54.6963 39.183 55.8441 39.183 57.2283V64.1154C39.183 71.3062 32.6336 77.1466 24.565 77.1466ZM15.8887 67.4238C17.3742 70.1921 20.7164 72.0826 24.565 72.0826C28.4136 72.0826 31.7559 70.1583 33.2413 67.4238C30.8443 68.8754 27.8735 69.7194 24.565 69.7194C21.2566 69.7194 18.2857 68.8754 15.8887 67.4238Z" fill="white"/>
<path d="M24.565 60.4354C19.0284 60.4354 14.0659 57.9034 11.6014 53.886C10.5211 52.1305 9.9472 50.0712 9.9472 47.9781C9.9472 44.4333 11.5001 41.1248 14.3359 38.6603C19.805 33.8665 29.2239 33.8666 34.7267 38.6268C37.5625 41.125 39.1492 44.4333 39.1492 47.9781C39.1492 50.0712 38.5754 52.1305 37.495 53.886C35.0643 57.9034 30.1016 60.4354 24.565 60.4354ZM24.565 40.0108C21.9318 40.0108 19.5011 40.8885 17.6781 42.4752C15.9564 43.9606 15.0112 45.9187 15.0112 47.9781C15.0112 49.1597 15.3149 50.2401 15.9225 51.2529C17.4755 53.8186 20.7839 55.4052 24.565 55.4052C28.3461 55.4052 31.6545 53.8186 33.1737 51.2867C33.7814 50.3076 34.0853 49.1934 34.0853 48.0119C34.0853 45.9525 33.1401 43.9944 31.4183 42.4752C29.6291 40.8885 27.1983 40.0108 24.565 40.0108Z" fill="white"/>
<path d="M24.565 69.7195C16.2264 69.7195 9.9472 64.3517 9.9472 57.2621V47.9782C9.9472 40.7874 16.4964 34.947 24.565 34.947C28.3799 34.947 32.026 36.2637 34.7605 38.6269C37.5963 41.1251 39.183 44.4335 39.183 47.9782V57.2621C39.183 64.3517 32.9037 69.7195 24.565 69.7195ZM24.565 40.011C19.2985 40.011 15.0112 43.5895 15.0112 47.9782V57.2621C15.0112 61.4821 19.0959 64.6555 24.565 64.6555C30.0341 64.6555 34.1191 61.4821 34.1191 57.2621V47.9782C34.1191 45.9189 33.1739 43.9608 31.4521 42.4416C29.6291 40.8886 27.1983 40.011 24.565 40.011Z" fill="white"/>
<path d="M64.6381 50.3075C59.5404 50.3075 55.2193 46.5264 54.8141 41.665C54.5441 38.8629 55.5569 36.1285 57.5825 34.1366C59.2705 32.3811 61.6673 31.4021 64.1992 31.4021H71.2551C74.5973 31.5034 77.1631 34.1365 77.1631 37.3774V44.3321C77.1631 47.5731 74.5974 50.2062 71.3565 50.3075H64.6381ZM71.1537 36.4661H64.233C63.0514 36.4661 61.9713 36.9049 61.1948 37.7152C60.2157 38.6604 59.7431 39.9432 59.8781 41.2261C60.0469 43.4542 62.2074 45.2435 64.6381 45.2435H71.2551C71.694 45.2435 72.0991 44.8385 72.0991 44.3321V37.3774C72.0991 36.871 71.6939 36.4998 71.1537 36.4661Z" fill="white"/>
<path d="M54.3764 72.0827H45.9365C44.5523 72.0827 43.4045 70.9348 43.4045 69.5507C43.4045 68.1666 44.5523 67.0187 45.9365 67.0187H54.3764C63.0864 67.0187 68.7243 61.3808 68.7243 52.6708V50.3076H64.6393C59.5415 50.3076 55.2204 46.5265 54.8153 41.6651C54.5452 38.8631 55.558 36.1286 57.5836 34.1368C59.2716 32.3813 61.6684 31.4023 64.2004 31.4023H68.6905V29.039C68.6905 21.1393 64.0655 15.7039 56.5708 14.8261C55.7606 14.6911 55.0515 14.6912 54.3426 14.6912H23.9588C23.1486 14.6912 22.3721 14.7586 21.5956 14.8599C14.1685 15.8052 9.61096 21.2068 9.61096 29.039V35.791C9.61096 37.1751 8.46312 38.323 7.07898 38.323C5.69483 38.323 4.547 37.1751 4.547 35.791V29.039C4.547 18.641 10.9615 11.1126 20.9206 9.86354C21.8321 9.7285 22.8785 9.6272 23.9588 9.6272H54.3426C55.1528 9.6272 56.1994 9.66095 57.2797 9.82975C67.2388 10.9776 73.7544 18.5398 73.7544 29.039V33.9342C73.7544 35.3184 72.6066 36.4662 71.2224 36.4662H64.2004C63.0188 36.4662 61.9386 36.9051 61.1621 37.7153C60.1831 38.6606 59.7104 39.9434 59.8454 41.2262C60.0142 43.4544 62.175 45.2437 64.6057 45.2437H71.2562C72.6404 45.2437 73.7882 46.3915 73.7882 47.7756V52.6708C73.7882 64.2842 65.9897 72.0827 54.3764 72.0827Z" fill="white"/>
</svg>
