<svg width="327" height="211" viewBox="0 0 327 211" fill="none" xmlns="http://www.w3.org/2000/svg">
<g clip-path="url(#clip0_29_195)">
<path d="M325.493 60.0256C333.029 84.9882 310.715 112.53 291.811 135.863C282.949 146.801 242.989 193.435 181.916 199.169C151.748 201.997 151.827 191.523 111.289 192.032C52.1201 192.779 32.6615 215.343 14.7215 202.653C-7.70637 186.795 -2.2099 133.895 15.8094 98.4478C37.9426 54.8905 79.3984 36.8274 98.9251 28.6385C188.319 -8.8223 310.805 11.3559 325.481 60.0143L325.493 60.0256Z" fill="#FFC127"/>
<path d="M150.184 58.3516C150.943 58.4421 151.816 57.8766 152.802 56.655C153.788 55.4335 154.717 54.1101 155.567 52.6963C156.61 50.9997 157.641 49.0656 158.684 46.9053C162.741 38.3318 166.447 30.9799 169.801 24.8495C173.156 18.7191 175.626 14.3419 177.236 11.7065C177.995 10.2022 178.868 8.72053 179.853 7.25015C180.839 5.79108 181.927 4.49035 183.106 3.35929C184.285 2.22822 185.633 1.37993 187.141 0.814394C188.648 0.248862 190.302 0.113134 192.093 0.384589C193.702 0.667355 194.972 1.16502 195.912 1.86628C196.853 2.56754 197.589 3.34798 198.111 4.19628C198.632 5.04457 198.961 5.89287 199.108 6.74117C199.255 7.58947 199.323 8.34728 199.323 9.0033C199.233 9.56883 199.04 9.87422 198.757 9.91946C198.473 9.9647 198.235 9.89684 198.054 9.70456C197.578 9.42179 197.034 9.22951 196.422 9.13902C195.81 9.04854 195.096 9.13902 194.303 9.42179C193.498 9.70456 192.626 10.2701 191.685 11.1184C190.744 11.9667 189.792 13.29 188.852 15.0771C186.869 18.8436 185.078 23.2321 183.469 28.2201C181.859 33.2194 180.216 38.3544 178.516 43.6252C176.816 48.9072 174.946 54.1101 172.918 59.2452C170.889 64.3802 168.453 68.9497 165.619 72.9537C162.786 76.9576 159.432 80.2038 155.567 82.7034C151.691 85.2031 147.067 86.4473 141.684 86.4473C136.392 86.255 131.723 85.2709 127.665 83.4839C125.965 82.7261 124.266 81.742 122.566 80.5092C120.866 79.2876 119.381 77.772 118.1 75.9849C116.831 74.1978 115.788 72.094 114.984 69.6962C114.179 67.2983 113.783 64.4367 113.783 61.1454C113.692 56.9943 114.157 53.3184 115.199 50.1175C115.958 47.3803 117.273 44.8128 119.166 42.4149C121.058 40.0171 123.79 38.6711 127.382 38.3883C128.889 38.2979 130.215 38.5354 131.349 39.0896C132.391 39.5646 133.264 40.3903 133.966 41.5666C134.669 42.7429 134.975 44.564 134.884 47.007C134.692 47.8553 134.408 48.2738 134.034 48.2738C133.559 48.4661 132.924 48.7489 132.119 49.1221C131.315 49.4954 130.487 50.1627 129.637 51.1015C128.787 52.0403 127.983 53.3184 127.235 54.9132C126.475 56.5193 125.965 58.5439 125.682 60.987C124.923 67.2078 126.056 72.0149 129.082 75.4081C132.108 78.8013 136.063 80.5883 140.982 80.7806C145.889 80.9729 150.071 78.6768 153.516 73.9264C156.961 69.1646 160.338 62.0276 163.647 52.5153C165.155 48.2738 166.39 44.6431 167.331 41.6345C168.271 38.6146 169.076 35.9792 169.733 33.717C168.124 37.1102 166.809 40.2433 165.767 43.1162C164.724 45.9891 163.715 48.6018 162.718 50.9658C161.721 53.3184 160.69 55.4448 159.602 57.3224C158.514 59.2112 157.165 60.8513 155.567 62.2651C154.15 63.5884 152.734 64.4594 151.317 64.8779C149.901 65.2964 148.529 65.466 147.215 65.3755C144.755 65.1833 142.92 64.5951 141.696 63.6111C140.472 62.6157 139.474 61.6091 138.726 60.5685C138.534 60.1953 138.375 59.8333 138.228 59.5053C138.092 59.1773 137.922 58.8154 137.729 58.4421C137.536 58.1593 137.446 57.8992 137.446 57.6617C137.446 57.4241 137.4 57.2092 137.298 57.0283C137.208 56.836 137.151 56.655 137.151 56.4627C136.675 53.9178 136.845 51.0223 137.65 47.7649C138.454 44.5187 139.588 41.216 141.05 37.868C142.512 34.5201 144.143 31.2287 145.934 27.9712C147.725 24.7251 149.425 21.7956 151.034 19.2055C152.643 16.6154 154.026 14.489 155.216 12.8489C156.394 11.1976 157.029 10.2814 157.131 10.0891C157.607 9.33131 157.698 8.86757 157.414 8.67529C157.222 8.48301 156.984 8.39252 156.712 8.39252C156.519 8.39252 156.383 8.43777 156.281 8.53956C152.79 9.95339 149.935 11.6726 147.713 13.6972C145.492 15.7218 143.747 17.7238 142.478 19.7032C141.208 21.6825 140.324 23.447 139.86 25.0079C139.384 26.5574 139.1 27.5301 139.01 27.9034C138.817 28.6612 138.862 29.1023 139.157 29.2493C139.44 29.3964 139.678 29.4642 139.86 29.4642C140.336 29.272 140.8 29.272 141.276 29.4642C141.469 29.6565 141.56 29.8375 141.56 30.0298V30.3125C141.186 31.0704 140.755 31.7264 140.29 32.2919C139.814 32.767 139.202 33.2081 138.454 33.6379C137.695 34.0564 136.709 34.3278 135.485 34.4183C133.026 34.6106 131.145 34.0451 129.819 32.7217C128.493 31.3984 127.699 29.7583 127.416 27.779C127.223 26.9307 127.201 25.7544 127.348 24.25C127.495 22.7457 128.028 20.9813 128.98 18.9454C129.921 16.9207 131.439 14.7039 133.513 12.306C135.587 9.90815 138.568 7.43112 142.432 4.88622C145.356 2.99735 148.144 1.64007 150.785 0.791772C153.051 0.0339594 155.318 -0.203564 157.584 0.0905126C159.851 0.373279 161.596 1.83235 162.82 4.46773C163.103 5.12375 163.341 5.88156 163.523 6.72986C163.715 7.48767 163.783 8.40383 163.738 9.48966C163.693 10.5755 163.523 11.8649 163.239 13.3805C163.149 13.6633 163.024 14.1157 162.888 14.7265C162.741 15.3373 162.537 16.0272 162.253 16.7737C162.061 17.2488 161.834 17.8143 161.551 18.4703C161.267 19.1263 160.939 19.8389 160.554 20.5854C159.511 22.5648 158.094 25.5281 156.304 29.4869C154.513 33.4456 152.904 37.5966 151.487 41.9286C151.113 43.1501 150.728 44.4961 150.354 45.9552C149.98 47.4142 149.651 48.8507 149.357 50.2645C149.073 51.9611 148.903 53.488 148.858 54.8566C148.813 56.2252 148.971 57.1866 149.357 57.7522C149.549 58.1254 149.833 58.3177 150.207 58.3177L150.184 58.3516Z" fill="#1C4986"/>
<path d="M211.223 36.7257C210.18 38.8973 209.33 41.1595 208.673 43.5121C207.914 45.9665 207.562 48.2512 207.608 50.3663C207.653 52.4814 208.333 54.4947 209.659 56.3723L209.942 56.9378C210.135 57.311 210.135 57.6504 209.942 57.9331C209.75 58.4987 209.138 58.6909 208.106 58.4987C206.316 58.4987 204.752 58.1707 203.426 57.5033C202.293 57.0283 201.25 56.18 200.309 54.9584C199.369 53.7369 198.893 51.995 198.893 49.7329C197.283 51.8028 195.402 53.6012 193.226 55.1055C191.05 56.6098 188.602 57.0848 185.86 56.5193C183.967 56.146 182.63 55.3656 181.825 54.1893C181.021 53.013 180.579 51.6218 180.477 50.0157C180.386 48.4096 180.601 46.6677 181.111 44.7902C181.633 42.9013 182.29 41.069 183.095 39.2819C183.899 37.4948 184.772 35.8208 185.713 34.26C186.653 32.7104 187.503 31.4549 188.262 30.5161C189.588 28.7291 191.254 26.9872 193.294 25.2906C195.334 23.594 197.476 22.8928 199.743 23.1755C200.117 23.266 200.615 23.3904 201.227 23.5262C201.839 23.6732 202.429 23.9786 202.995 24.4423C204.038 25.2001 204.639 26.1615 204.831 27.3378C205.024 28.5142 204.922 29.7696 204.548 31.0817V31.2287H204.684C205.534 30.5727 206.531 30.4709 207.653 30.9459C207.744 31.0364 207.846 31.093 207.936 31.093C209.546 31.9413 210.577 33.0723 211.053 34.4862C211.427 35.1422 211.484 35.9 211.189 36.7483L211.223 36.7257ZM200.604 40.1189C200.887 39.0783 201.216 38.049 201.601 37.0084C201.975 35.9679 202.406 34.9386 202.871 33.898C202.395 34.3731 201.907 34.7689 201.386 35.0969C200.865 35.425 200.23 35.5946 199.471 35.5946C198.621 35.5946 198.145 35.4589 198.054 35.1761C197.861 34.8029 197.861 34.3278 198.054 33.7623L198.473 33.3438L198.609 33.1968C198.983 32.7217 199.301 31.9752 199.527 30.9346C199.765 29.8941 199.459 29.1023 198.609 28.5368C197.85 28.0617 196.955 28.1635 195.923 28.8195C194.881 29.4756 193.838 30.4709 192.807 31.7829C191.764 33.1063 190.824 34.6106 189.974 36.3072C189.124 38.0038 188.557 39.6099 188.274 41.1142C187.99 42.6185 188.081 43.9419 188.557 45.0729C189.033 46.204 190.064 46.8148 191.674 46.9053C192.716 46.9957 194.008 46.5546 195.572 45.5593C197.125 44.5639 198.564 43.5121 199.89 42.381C200.083 42.0077 200.196 41.6232 200.241 41.2499C200.287 40.8767 200.4 40.4921 200.593 40.1189H200.604Z" fill="#1C4986"/>
<path d="M223.122 38.9878C223.032 39.18 222.998 39.4063 223.054 39.689C223.1 39.9718 223.077 40.2093 222.986 40.3903C222.703 41.2386 222.42 42.3244 222.136 43.6364C221.853 44.9598 221.66 46.3171 221.57 47.7309C221.479 49.1447 221.502 50.5359 221.638 51.9045C221.774 53.2731 222.136 54.4268 222.703 55.3656C222.896 55.7388 222.839 56.2139 222.556 56.7794C222.363 57.0622 222.136 57.2205 221.853 57.2771C221.57 57.3223 221.332 57.3449 221.15 57.3449C220.776 57.2545 220.232 57.13 219.519 56.9943C218.805 56.8586 218.079 56.5871 217.32 56.2139C216.561 55.8406 215.813 55.3203 215.053 54.6643C214.294 54.0083 213.727 53.1148 213.353 51.9837C213.07 51.0449 212.877 49.9591 212.787 48.7375C212.696 47.516 212.696 46.2605 212.787 44.9937C212.877 43.7156 213.047 42.4941 213.285 41.3178C213.523 40.1414 213.727 39.1235 213.92 38.2752C214.011 37.9019 214.294 36.8161 214.77 35.029C215.246 33.242 215.858 31.0929 216.606 28.5933C217.365 26.0936 218.238 23.3904 219.224 20.4609C220.221 17.5428 221.298 14.7604 222.476 12.125C223.655 9.48962 224.856 7.18224 226.092 5.20288C227.316 3.22352 228.596 1.85493 229.911 1.10843C229.911 1.01794 230.103 0.870906 230.477 0.689936C230.851 0.599451 231.282 0.497655 231.747 0.40717C232.223 0.316685 232.835 0.260132 233.583 0.260132C233.775 0.260132 234.036 0.282753 234.365 0.327996C234.693 0.373238 235.09 0.452413 235.566 0.542898C235.94 0.735179 236.699 1.13105 237.833 1.74183C238.966 2.3526 239.623 3.4158 239.816 4.92012C239.816 5.29337 239.623 5.67793 239.249 6.05118C239.158 6.14166 239.034 6.26608 238.898 6.40181C238.762 6.54885 238.592 6.7072 238.399 6.89948C237.923 7.18224 237.073 8.26807 235.849 10.1456C234.625 12.0345 233.254 14.4097 231.747 17.2826C230.239 20.1555 228.698 23.413 227.146 27.0324C225.593 30.6631 224.335 34.407 223.394 38.2752C223.304 38.4675 223.247 38.5806 223.247 38.6258C223.247 38.6711 223.202 38.7955 223.111 38.9765L223.122 38.9878Z" fill="#1C4986"/>
<path d="M238.422 38.9878C238.331 39.18 238.297 39.4063 238.354 39.689C238.399 39.9718 238.377 40.2093 238.286 40.3903C238.003 41.2386 237.719 42.3244 237.436 43.6364C237.153 44.9598 236.96 46.3171 236.869 47.7309C236.779 49.1447 236.801 50.5359 236.937 51.9045C237.073 53.2731 237.436 54.4268 238.003 55.3656C238.195 55.7388 238.139 56.2139 237.855 56.7794C237.663 57.0622 237.436 57.2205 237.153 57.2771C236.869 57.3223 236.631 57.3449 236.45 57.3449C236.076 57.2545 235.532 57.13 234.818 56.9943C234.104 56.8586 233.379 56.5871 232.619 56.2139C231.86 55.8406 231.112 55.3203 230.353 54.6643C229.594 54.0083 229.027 53.1148 228.653 51.9837C228.37 51.0449 228.177 49.9591 228.086 48.7375C227.996 47.516 227.996 46.2605 228.086 44.9937C228.177 43.7156 228.347 42.4941 228.585 41.3178C228.823 40.1414 229.027 39.1235 229.22 38.2752C229.31 37.9019 229.594 36.8161 230.07 35.029C230.546 33.242 231.158 31.0929 231.906 28.5933C232.665 26.0936 233.537 23.3904 234.523 20.4609C235.521 17.5428 236.597 14.7604 237.776 12.125C238.955 9.48962 240.156 7.18224 241.391 5.20288C242.615 3.22352 243.896 1.85493 245.21 1.10843C245.21 1.01794 245.403 0.870906 245.777 0.689936C246.151 0.599451 246.582 0.497655 247.046 0.40717C247.522 0.316685 248.134 0.260132 248.882 0.260132C249.075 0.260132 249.336 0.282753 249.664 0.327996C249.993 0.373238 250.389 0.452413 250.865 0.542898C251.239 0.735179 251.999 1.13105 253.132 1.74183C254.265 2.3526 254.923 3.4158 255.115 4.92012C255.115 5.29337 254.923 5.67793 254.549 6.05118C254.458 6.14166 254.333 6.26608 254.197 6.40181C254.061 6.54885 253.891 6.7072 253.699 6.89948C253.223 7.18224 252.373 8.26807 251.149 10.1456C249.925 12.0345 248.554 14.4097 247.046 17.2826C245.539 20.1555 243.998 23.413 242.445 27.0324C240.893 30.6631 239.635 34.407 238.694 38.2752C238.603 38.4675 238.547 38.5806 238.547 38.6258C238.547 38.6711 238.501 38.7955 238.411 38.9765L238.422 38.9878Z" fill="#1C4986"/>
<path d="M270.29 36.7257C269.248 38.8973 268.398 41.1595 267.74 43.5121C266.981 45.9665 266.63 48.2512 266.675 50.3663C266.72 52.4814 267.4 54.4947 268.726 56.3723L269.01 56.9378C269.202 57.311 269.202 57.6504 269.01 57.9331C268.817 58.4987 268.205 58.6909 267.174 58.4987C265.383 58.4987 263.819 58.1707 262.504 57.5033C261.371 57.0283 260.329 56.18 259.388 54.9584C258.447 53.7369 257.971 51.995 257.971 49.7329C256.362 51.8028 254.481 53.6012 252.305 55.1055C250.129 56.6098 247.681 57.0848 244.938 56.5193C243.046 56.146 241.709 55.3656 240.904 54.1893C240.099 53.013 239.657 51.6218 239.555 50.0157C239.465 48.4096 239.669 46.6677 240.19 44.7902C240.711 42.9013 241.369 41.069 242.173 39.2819C242.978 37.4948 243.85 35.8208 244.791 34.26C245.732 32.7104 246.582 31.4549 247.341 30.5161C248.667 28.7291 250.333 26.9872 252.373 25.2906C254.401 23.594 256.555 22.8928 258.821 23.1755C259.195 23.266 259.694 23.3904 260.306 23.5262C260.918 23.6732 261.507 23.9786 262.074 24.4423C263.116 25.2001 263.728 26.1615 263.91 27.3378C264.102 28.5142 264 29.7696 263.626 31.0817V31.2287H263.762C264.612 30.5727 265.61 30.4709 266.743 30.9459C266.834 31.0364 266.936 31.093 267.026 31.093C268.636 31.9413 269.667 33.0723 270.143 34.4862C270.517 35.1422 270.573 35.9 270.29 36.7483V36.7257ZM259.66 40.1189C259.943 39.0783 260.272 38.049 260.657 37.0084C261.031 35.9679 261.462 34.9386 261.926 33.898C261.45 34.3731 260.952 34.7689 260.442 35.0969C259.921 35.425 259.286 35.5946 258.527 35.5946C257.677 35.5946 257.201 35.4589 257.11 35.1761C256.917 34.8029 256.917 34.3278 257.11 33.7623L257.529 33.3438L257.665 33.1968C258.039 32.7217 258.345 31.9752 258.583 30.9346C258.821 29.8941 258.515 29.1023 257.665 28.5368C256.906 28.0617 256.011 28.1635 254.979 28.8195C253.937 29.4756 252.905 30.4709 251.863 31.7829C250.82 33.1063 249.88 34.6106 249.03 36.3072C248.18 38.0038 247.613 39.6099 247.33 41.1142C247.046 42.6185 247.137 43.9419 247.613 45.0729C248.089 46.204 249.12 46.8148 250.73 46.9053C251.772 46.9957 253.064 46.5546 254.628 45.5593C256.181 44.5639 257.62 43.5121 258.946 42.381C259.139 42.0077 259.252 41.6232 259.297 41.2499C259.343 40.8767 259.456 40.4921 259.649 40.1189H259.66Z" fill="#1C4986"/>
<path d="M113.227 112.643C112.876 113.525 112.173 114.565 111.119 115.798C110.065 117.02 108.49 117.993 106.382 118.683C103.753 119.384 99.6277 120.515 94.0179 122.098C88.4081 123.671 82.005 125.865 74.8199 128.659C75.6926 133.205 76.1799 137.978 76.2705 142.966C76.3612 147.954 75.7832 153.248 74.5593 158.847C72.2814 169.173 68.6435 177.351 63.6457 183.391C58.6479 189.431 53.3441 193.797 47.7343 196.511C42.1245 199.226 36.6393 200.662 31.3015 200.843C25.9524 201.013 21.7932 200.323 18.8127 198.739C15.1295 196.816 12.5002 194.407 10.9249 191.523C9.34967 188.639 8.51103 185.574 8.4317 182.339C8.34104 179.104 8.86235 175.733 10.007 172.238C11.1516 168.732 12.5116 165.497 14.0868 162.523C15.1408 160.419 16.7161 157.976 18.824 155.171C20.9319 152.377 23.5158 149.357 26.587 146.111C29.6469 142.876 33.2961 139.551 37.5006 136.135C41.7051 132.719 46.4423 129.529 51.7008 126.555C50.8168 122.358 49.6835 118.287 48.2782 114.351C46.873 110.414 45.207 106.693 43.2804 103.198C41.5238 99.7033 40.4699 95.8011 40.1185 91.5144C39.7672 87.2276 40.3792 83.1106 41.9545 79.1745C43.5297 75.2384 46.0683 71.6981 49.5815 68.5425C53.0834 65.3868 57.8206 63.2038 63.7817 61.9823C68.3375 61.1114 72.1114 61.0209 75.0919 61.7221C78.0725 62.4234 80.5204 63.4753 82.4583 64.8778C84.5662 66.45 86.2208 68.3841 87.4561 70.6576C88.5101 69.6057 89.6434 68.3841 90.8787 66.9816C91.7513 65.76 92.8053 64.3575 94.0406 62.7853C95.2645 61.2132 96.4885 59.46 97.7238 57.5372C98.0751 56.4853 98.5964 55.6144 99.299 54.9131C100.704 53.5106 102.098 53.16 103.504 53.8612C103.855 54.0422 104.558 54.5173 105.611 55.309C106.665 56.1008 107.583 57.2318 108.377 58.7248C109.17 60.2178 109.601 62.1859 109.691 64.629C109.782 67.0834 108.943 69.9676 107.187 73.2929C105.26 76.7992 102.846 80.1133 99.9563 83.2689C97.0664 86.4246 94.0406 89.0487 90.8787 91.1411C87.7281 93.2449 84.7022 94.7266 81.801 95.6088C78.9111 96.4911 76.6672 96.4006 75.0919 95.3487C73.5166 94.2968 72.508 93.3354 72.066 92.4645C71.624 91.5935 71.5447 90.7566 71.8054 89.9648C72.066 89.1731 72.508 88.4379 73.12 87.7366C73.732 87.0354 74.2193 86.3341 74.5706 85.6328C75.0919 84.5809 75.5339 83.3142 75.8852 81.8211C76.2365 80.3395 76.3159 78.9369 76.1459 77.6249C75.9646 76.3129 75.4886 75.2157 74.6953 74.3448C73.902 73.4739 72.6327 73.0328 70.8874 73.0328C69.3121 73.0328 67.9069 73.6888 66.6829 75.0008C65.4589 76.3129 64.4503 77.9755 63.657 79.9888C62.8637 82.0021 62.3877 84.1851 62.2064 86.549C62.0251 88.9129 62.2971 91.1411 62.9997 93.2449C63.7023 96.0499 64.9263 99.4092 66.6829 103.357C68.4282 107.293 70.1848 111.885 71.9414 117.133C77.5512 115.38 83.5576 113.977 89.9607 112.937C96.3638 111.885 103.243 111.274 110.609 111.104H111.131C111.482 111.104 111.958 111.195 112.581 111.365C113.193 111.546 113.409 111.975 113.239 112.677L113.227 112.643ZM47.4849 161.471C50.6468 154.481 52.3921 147.649 52.7434 140.998C44.5044 146.077 37.2626 152.241 31.0409 159.503C24.8191 166.764 21.1812 175.213 20.1273 184.838C23.6291 184.488 26.961 183.436 30.1229 181.683C32.9221 180.28 35.9027 178.007 39.0646 174.862C42.2151 171.707 45.0257 167.25 47.4849 161.471Z" fill="#1C4986"/>
<path d="M144.268 129.971C142.341 133.997 140.755 138.193 139.531 142.571C138.126 147.118 137.468 151.359 137.559 155.295C137.65 159.231 138.919 162.952 141.378 166.447L141.899 167.499C142.251 168.201 142.251 168.811 141.899 169.332C141.548 170.383 140.403 170.734 138.477 170.383C135.145 170.383 132.255 169.773 129.796 168.551C127.688 167.669 125.761 166.097 124.005 163.823C122.248 161.55 121.375 158.315 121.375 154.107C118.395 157.964 114.882 161.29 110.859 164.083C106.824 166.877 102.268 167.759 97.1797 166.708C93.6665 166.006 91.1732 164.57 89.6886 162.376C88.204 160.193 87.3654 157.614 87.184 154.628C87.014 151.653 87.4107 148.418 88.3627 144.912C89.326 141.417 90.5499 138.001 92.0459 134.676C93.5305 131.35 95.1511 128.24 96.9077 125.356C98.653 122.472 100.24 120.153 101.645 118.4C104.093 115.074 107.209 111.84 110.983 108.684C114.757 105.528 118.746 104.216 122.951 104.748C123.653 104.929 124.571 105.144 125.716 105.404C126.861 105.664 127.949 106.241 129.003 107.112C130.929 108.514 132.062 110.301 132.425 112.496C132.776 114.69 132.595 116.997 131.904 119.452V119.712H132.164C133.74 118.49 135.587 118.309 137.684 119.192C137.854 119.372 138.035 119.452 138.205 119.452C141.185 121.024 143.112 123.128 143.996 125.752C144.699 126.973 144.789 128.376 144.257 129.948L144.268 129.971ZM124.537 136.271C125.059 134.348 125.671 132.425 126.373 130.491C127.076 128.568 127.858 126.645 128.742 124.711C127.858 125.593 126.94 126.329 125.977 126.939C125.013 127.55 123.823 127.855 122.429 127.855C120.854 127.855 119.97 127.595 119.8 127.064C119.449 126.362 119.449 125.492 119.8 124.44L120.593 123.648L120.854 123.388C121.557 122.517 122.123 121.114 122.565 119.192C122.996 117.269 122.429 115.776 120.854 114.724C119.449 113.853 117.783 114.023 115.856 115.244C113.93 116.466 111.992 118.309 110.077 120.752C108.15 123.207 106.393 126.001 104.818 129.156C103.243 132.312 102.189 135.287 101.656 138.08C101.135 140.885 101.305 143.328 102.177 145.432C103.05 147.536 104.977 148.667 107.957 148.848C109.884 149.029 112.298 148.192 115.188 146.348C118.078 144.516 120.752 142.548 123.211 140.444C123.563 139.743 123.778 139.042 123.869 138.34C123.959 137.639 124.175 136.938 124.526 136.237L124.537 136.271Z" fill="#1C4986"/>
<path d="M160.837 168.291C160.315 168.291 159.386 168.155 158.071 167.895C156.757 167.635 155.397 167.149 153.992 166.447C152.586 165.746 151.136 164.739 149.651 163.427C148.155 162.115 147.067 160.407 146.364 158.315C145.662 156.562 145.311 154.549 145.311 152.275C145.311 150.002 145.526 147.683 145.968 145.319C146.399 142.955 146.931 140.682 147.543 138.487C148.155 136.305 148.722 134.416 149.254 132.843C149.424 132.142 150.127 130.004 151.362 126.408C152.586 122.822 154.128 118.535 155.963 113.548C157.799 108.56 159.907 103.221 162.276 97.5316C164.645 91.8424 167.138 86.549 169.767 81.6515C172.396 76.754 175.071 72.5917 177.791 69.1872C180.511 65.7714 183.094 63.7241 185.554 63.0229C185.724 63.0229 185.984 62.9437 186.347 62.7627C186.698 62.7627 187.095 62.7175 187.526 62.627C187.956 62.5365 188.534 62.4913 189.237 62.4913C190.461 62.4913 191.866 62.5818 193.441 62.7514C195.017 62.9324 196.547 63.4074 198.043 64.1992C199.527 64.9909 200.887 66.122 202.122 67.615C203.346 69.108 204.14 71.1552 204.491 73.7793V74.2996C204.491 74.6502 204.4 74.9104 204.23 75.0913C203.879 75.442 203.573 75.6116 203.312 75.6116C203.052 75.6116 202.746 75.7021 202.394 75.8718C200.468 76.3921 198.099 78.2809 195.289 81.5158C192.478 84.7506 189.452 88.9921 186.211 94.2402C182.97 99.4884 179.638 105.528 176.215 112.349C172.793 119.169 169.506 126.442 166.356 134.133C167.058 133.081 168.588 131.068 170.957 128.093C173.326 125.118 176.079 122.053 179.241 118.909C182.392 115.753 185.86 112.869 189.634 110.245C193.396 107.621 197.034 106.139 200.547 105.788C202.825 105.438 204.922 105.528 206.86 106.049C208.435 106.399 209.931 107.1 211.336 108.152C212.741 109.204 213.614 110.957 213.965 113.4C214.135 115.674 213.217 118.83 211.2 122.856C209.183 126.883 207.381 131.35 205.806 136.237C204.049 141.485 203.176 146.609 203.176 151.585C203.176 156.562 204.31 160.555 206.599 163.529C206.95 164.05 207.256 164.672 207.517 165.362C207.778 166.063 207.472 166.583 206.599 166.934C205.545 167.284 204.276 167.669 202.78 168.11C201.284 168.54 199.618 168.811 197.782 168.902C195.946 168.981 193.963 168.857 191.866 168.506C189.758 168.155 187.662 167.364 185.554 166.142C184.67 165.622 184.148 165 183.978 164.31C183.797 163.608 183.627 163.088 183.457 162.737C183.276 161.165 183.23 159.062 183.321 156.437C183.412 153.813 183.797 150.658 184.5 146.982C185.202 143.306 186.29 139.155 187.786 134.517C189.271 129.88 191.504 124.847 194.495 119.429C194.847 118.909 195.017 118.377 195.017 117.857C195.017 116.986 194.133 116.805 192.387 117.337C191.685 117.687 190.11 118.83 187.65 120.752C185.191 122.675 182.426 125.525 179.366 129.281C176.295 133.047 173.36 137.73 170.56 143.328C167.75 148.927 165.653 155.487 164.248 163.009C163.727 167.036 162.582 168.789 160.825 168.257L160.837 168.291Z" fill="#1C4986"/>
<path d="M269.973 133.907C271.027 134.789 270.845 136.18 269.451 138.103C268.046 140.207 265.723 143.181 262.482 147.027C259.24 150.884 255.376 154.515 250.911 157.919C246.434 161.335 241.572 163.959 236.314 165.791C231.055 167.624 225.797 167.669 220.538 165.927C215.631 164.355 212.39 161.595 210.803 157.659C209.228 153.723 208.832 149.391 209.625 144.663C210.418 139.935 212.129 135.128 214.759 130.231C217.388 125.333 220.459 120.956 223.961 117.11C226.069 114.837 228.381 112.699 230.931 110.675C233.469 108.661 236.144 106.999 238.954 105.687C241.754 104.375 244.564 103.673 247.375 103.583C250.174 103.504 252.803 104.239 255.263 105.811C256.838 106.863 257.892 108.299 258.424 110.143C258.946 111.975 259.036 114 258.685 116.183C258.334 118.377 257.586 120.605 256.452 122.879C255.308 125.152 253.948 127.335 252.373 129.439C251.149 131.192 249.913 132.583 248.689 133.635L246.853 135.468C246.332 135.988 245.63 136.429 244.746 136.78C241.414 139.234 238.127 140.851 234.886 141.632C231.645 142.424 228.97 142.989 226.862 143.34C226.681 147.016 227.384 149.504 228.97 150.816C230.545 152.128 232.608 152.739 235.147 152.648C237.685 152.558 240.575 151.823 243.828 150.42C247.069 149.018 250.185 147.4 253.166 145.568C256.146 143.736 258.855 141.756 261.314 139.664C263.762 137.56 265.609 135.728 266.833 134.156C267.185 133.805 267.661 133.59 268.284 133.499C268.896 133.409 269.463 133.545 269.995 133.895L269.973 133.907ZM227.894 132.855C227.542 133.556 227.372 134.212 227.372 134.823C227.372 135.434 227.202 136.09 226.851 136.791C228.426 135.92 229.786 135.083 230.931 134.291C232.064 133.5 233.073 132.674 233.957 131.792L235.793 129.959C237.719 128.036 238.954 126.543 239.476 125.503C240.7 123.58 241.663 121.612 242.366 119.599C243.068 117.585 242.978 116.058 242.105 115.007C241.584 114.136 240.654 114.09 239.34 114.871C238.025 115.663 236.665 116.929 235.26 118.683C233.855 120.436 232.461 122.573 231.055 125.118C229.65 127.652 228.596 130.242 227.894 132.866V132.855Z" fill="#1C4986"/>
<path d="M281.816 134.167C281.634 134.517 281.589 134.959 281.68 135.479C281.759 135.999 281.725 136.44 281.544 136.791C281.022 138.363 280.49 140.376 279.968 142.831C279.447 145.285 279.085 147.819 278.915 150.443C278.745 153.067 278.779 155.657 279.051 158.179C279.311 160.724 279.968 162.862 281.022 164.615C281.374 165.316 281.283 166.187 280.762 167.239C280.41 167.759 279.968 168.065 279.447 168.155C278.926 168.234 278.484 168.291 278.133 168.291C277.43 168.11 276.421 167.895 275.107 167.635C273.792 167.375 272.432 166.888 271.027 166.187C269.622 165.486 268.228 164.525 266.822 163.303C265.417 162.081 264.363 160.419 263.66 158.315C263.139 156.562 262.776 154.549 262.606 152.275C262.425 150.002 262.425 147.683 262.606 145.319C262.776 142.955 263.082 140.682 263.524 138.487C263.966 136.305 264.352 134.416 264.703 132.843C264.873 132.142 265.406 130.129 266.278 126.804C267.151 123.478 268.296 119.497 269.701 114.86C271.106 110.222 272.727 105.189 274.563 99.7711C276.399 94.3533 278.416 89.1844 280.614 84.2869C282.802 79.3894 285.034 75.1026 287.324 71.4267C289.601 67.7507 291.97 65.2171 294.429 63.8146C294.429 63.645 294.781 63.3735 295.483 63.0229C296.186 62.8532 296.968 62.6722 297.852 62.5026C298.724 62.3329 299.869 62.2424 301.274 62.2424C301.626 62.2424 302.102 62.2877 302.725 62.3782C303.337 62.4686 304.085 62.6044 304.958 62.774C305.66 63.1247 307.065 63.8712 309.162 65.0022C311.27 66.1446 312.494 68.1127 312.845 70.9064C312.845 71.6076 312.494 72.3089 311.791 73.0102L311.134 73.6662L310.216 74.5823C309.332 75.1026 307.757 77.1159 305.479 80.6222C303.201 84.1285 300.651 88.5397 297.852 93.8783C295.041 99.2169 292.197 105.257 289.307 111.987C286.417 118.728 284.082 125.684 282.337 132.855C282.156 133.205 282.076 133.42 282.076 133.511C282.076 133.601 281.986 133.816 281.816 134.167Z" fill="#1C4986"/>
<path d="M242.275 184.002C229.911 191.116 216.969 197.405 203.199 201.295C190.597 204.87 177.508 206.216 164.463 204.723C156.61 203.818 148.892 201.793 141.48 199.101C140.041 198.581 138.375 199.689 137.99 201.081C137.559 202.653 138.522 204.033 139.973 204.564C153.346 209.417 167.603 211.747 181.825 210.785C195.89 209.835 209.455 205.91 222.375 200.402C230.206 197.065 237.765 193.129 245.142 188.888C248.304 187.067 245.448 182.18 242.286 184.002H242.275Z" fill="#1C4986"/>
<path d="M132.425 204.123C136.074 204.123 136.074 198.468 132.425 198.468C128.776 198.468 128.776 204.123 132.425 204.123Z" fill="#1C4986"/>
<path d="M123.993 203.162C126.725 203.162 126.736 198.92 123.993 198.92C121.251 198.92 121.251 203.162 123.993 203.162Z" fill="#1C4986"/>
<path d="M117.137 202.709C118.962 202.709 118.962 199.882 117.137 199.882C115.312 199.882 115.312 202.709 117.137 202.709Z" fill="#1C4986"/>
</g>
<defs>
<clipPath id="clip0_29_195">
<rect width="327" height="211" fill="white"/>
</clipPath>
</defs>
</svg>
